<svg width="25" height="25" viewBox="0 0 25 25" fill="none" xmlns="http://www.w3.org/2000/svg">
<path d="M3.35277 3.78223H21.6207C21.8899 3.78223 22.148 3.88758 22.3383 4.07512C22.5287 4.26266 22.6356 4.51701 22.6356 4.78223V20.7822C22.6356 21.0474 22.5287 21.3018 22.3383 21.4893C22.148 21.6769 21.8899 21.7822 21.6207 21.7822H3.35277C3.08361 21.7822 2.82547 21.6769 2.63514 21.4893C2.44482 21.3018 2.33789 21.0474 2.33789 20.7822V4.78223C2.33789 4.51701 2.44482 4.26266 2.63514 4.07512C2.82547 3.88758 3.08361 3.78223 3.35277 3.78223ZM20.6058 8.02023L12.5598 15.1202L4.36766 7.99823V19.7822H20.6058V8.02023ZM4.88627 5.78223L12.5486 12.4442L20.1004 5.78223H4.88627Z" fill="#333333"/>
</svg>
