<svg width="25" height="25" viewBox="0 0 25 25" fill="none" xmlns="http://www.w3.org/2000/svg">
<path d="M12.4582 23.8568L5.99946 17.4928C4.72206 16.2342 3.85215 14.6305 3.49972 12.8847C3.14729 11.1389 3.32818 9.32926 4.01951 7.68473C4.71085 6.0402 5.88157 4.6346 7.38364 3.64567C8.88571 2.65674 10.6517 2.12891 12.4582 2.12891C14.2647 2.12891 16.0307 2.65674 17.5327 3.64567C19.0348 4.6346 20.2055 6.0402 20.8968 7.68473C21.5882 9.32926 21.7691 11.1389 21.4166 12.8847C21.0642 14.6305 20.1943 16.2342 18.9169 17.4928L12.4582 23.8568ZM17.4819 16.0788C18.4753 15.0998 19.1519 13.8525 19.4259 12.4947C19.7 11.1369 19.5592 9.72943 19.0215 8.45038C18.4838 7.17134 17.5732 6.07813 16.405 5.309C15.2367 4.53986 13.8632 4.12933 12.4582 4.12933C11.0531 4.12933 9.67964 4.53986 8.51138 5.309C7.34312 6.07813 6.43256 7.17134 5.89484 8.45038C5.35711 9.72943 5.21639 11.1369 5.49044 12.4947C5.7645 13.8525 6.44104 15.0998 7.4345 16.0788L12.4582 21.0288L17.4819 16.0788ZM12.4582 13.1288C11.9199 13.1288 11.4036 12.9181 11.0229 12.543C10.6423 12.168 10.4284 11.6593 10.4284 11.1288C10.4284 10.5984 10.6423 10.0897 11.0229 9.71461C11.4036 9.33954 11.9199 9.12883 12.4582 9.12883C12.9965 9.12883 13.5128 9.33954 13.8934 9.71461C14.2741 10.0897 14.488 10.5984 14.488 11.1288C14.488 11.6593 14.2741 12.168 13.8934 12.543C13.5128 12.9181 12.9965 13.1288 12.4582 13.1288Z" fill="#333333"/>
</svg>
